<?xml version="1.0" encoding="UTF-8"?>
<svg id="Layer_1" data-name="Layer 1" xmlns="http://www.w3.org/2000/svg" viewBox="0 0 650.42 566.9">
  <defs>
    <style>
      .cls-1 {
        fill: #231f20;
        fill-rule: evenodd;
      }
    </style>
  </defs>
  <path class="cls-1" d="m466.35,0c17.74.25,31.34,16.85,23.28,35.28-3.45,7.89-10.75,12.58-20.64,14.16-16.6,2.65-31.49-16.58-25.2-33.12,2.76-7.26,8.64-13.04,16.32-15.36,2.08-.32,4.16-.64,6.24-.96Z"/>
  <path class="cls-1" d="m305.31,123.12h-42.48c-3.98-8.38-22.69-15.06-35.52-11.28-12.25,3.61-28.88,17.98-25.92,36,2.43,14.81,8.97,24.86,20.88,30,15.6,6.73,34.65.13,41.52-10.56,7.64-.06,37.87-1.36,41.52,1.2v47.52h-62.88c-6.3,0-21.48,1.62-26.16-.48-4.64-10.51-25.31-17.5-39.84-11.76-11.72,4.63-19.42,14.32-21.84,28.32-3.7,21.42,18.21,42.27,39.6,37.92,8.58-1.74,13.44-5.58,19.2-9.84h74.16c5.92,6,11.84,12,17.76,18,.08,6.89,1.43,23.45-1.44,27.36h-108.24c-3.93-8.27-22.52-14.71-35.28-10.8-12.04,3.69-28.03,17.89-24.96,36,3.27,19.29,21.62,39.26,46.32,29.52,6.24-2.46,10.18-6.43,14.64-10.56h108.96v35.76h-48.96c-4.44-9.35-24.72-15.83-38.16-10.56-13.06,5.12-20,14.89-22.56,30.72-3.24,20.05,20.16,40.14,41.04,35.52,9.1-2.01,13.6-6.83,19.68-11.52h48.96c.13,18.46,2.03,44.23-1.44,60-6.1,27.71-21.28,47.17-42.48,59.76-7.11,4.22-15.57,7.35-24.48,9.6-45.44,11.48-91.09-20.46-100.8-51.36-10.84.15-20.28-1.63-28.56-4.32-35.54-11.56-71.16-53-58.08-104.64,2.56-10.09,6.89-18.34,11.28-26.4-31.18-11.66-51.01-32.33-59.04-67.2-2.5-10.84-2.19-26.46.48-36.96,1.94-7.64,4.53-15.38,8.16-21.6,7.97-13.64,18.16-25.05,31.44-33.36,4.24-2.16,8.48-4.32,12.72-6.48,2.08-.8,4.16-1.6,6.24-2.4-12.77-15.02-17.53-50.99-9.36-74.4,11.45-32.81,40.51-60.85,84.72-60.72,2.11-7.14,6.98-13.33,11.04-18.72,15.39-20.42,48.68-42.26,87.6-33.12,6.8,1.6,13.29,3.65,19.2,6.24,25.41,11.16,43.29,33.6,49.92,63.6,2.28,10.3,1.47,23.75,1.44,36Z"/>
  <path class="cls-1" d="m391.71,47.76c17.6-.23,32.02,16.46,24.24,34.56-3.65,8.49-10.74,13.24-21.36,14.88-17.21,2.66-30.86-17.62-24.48-33.84,2.63-6.67,8.22-12.02,15.12-14.4,2.16-.4,4.32-.8,6.48-1.2Z"/>
  <path class="cls-1" d="m528.51,47.76c17.2-.26,31.93,16.04,24.48,34.08-3.61,8.75-10.77,13.68-21.6,15.36-16.67,2.58-31.17-17.32-24.48-33.84,2.69-6.64,8.2-11.99,15.12-14.4,2.16-.4,4.32-.8,6.48-1.2Z"/>
  <path class="cls-1" d="m448.35,117.84c34.1-.63,35.65,43.99,5.76,49.2-18.13,3.16-33.04-16.36-26.4-33.36,2.56-6.56,7.83-11.85,14.4-14.4,2.08-.48,4.16-.96,6.24-1.44Z"/>
  <path class="cls-1" d="m235.47,120.96c12.73.08,16.25,6.27,22.56,12.48h60c29.84,29.92,59.68,59.84,89.52,89.76h33.6c2.87,0,10.25,1.05,12-.48,4.63-4.42,7.76-8.93,15.12-10.8,16.83-4.27,34.03,10.69,30.96,27.6-4.22,23.22-33.86,30.05-46.32,9.84h-45.36l-90,90h-126.72c-3.1,8.94-17.73,16-30,11.04-8.06-3.26-13.52-10.15-15.12-19.92-2.5-15.27,13.05-29.85,28.56-26.4,8.55,1.9,11.51,6.6,16.56,11.76h117.36c8.24-8.24,16.48-16.48,24.72-24.72-13.68-13.76-27.36-27.52-41.04-41.28h-61.92c-3.59,0-20.03-.88-21.6.48-4.22,3.64-7.26,7.51-13.68,9.12-16.37,4.1-32.72-10.24-29.76-26.88,2.38-13.38,16.5-26.18,33.36-18.96,6.74,2.89,8.37,7.9,12.96,12.72h90.24l48,48c11.6-11.52,23.2-23.04,34.8-34.56,1.04-1.12,2.08-2.24,3.12-3.36-26.4-26.48-52.8-52.96-79.2-79.44h-49.92c-5.2,15.89-31.14,17.14-41.04,4.56-1.73-2.19-3.34-5.09-4.32-7.92-4.81-13.86,4-26.53,13.2-30.48,2.81-1.21,6.16-.95,9.36-2.16Z"/>
  <path class="cls-1" d="m554.19,122.64c34.94-.63,36.57,43.19,7.44,48.96-17.66,3.5-33.07-14.31-27.84-31.44,2.22-7.28,7.49-12.99,14.16-15.84,2.08-.56,4.16-1.12,6.24-1.68Z"/>
  <path class="cls-1" d="m531.39,176.16c20.35-.55,21.2,25.53,3.12,28.56-9.45,1.58-17.88-8.08-15.12-18,1.84-6.61,6.06-7.93,12-10.56Z"/>
  <path class="cls-1" d="m612.27,180c35.16-.65,36.39,44.04,5.76,49.2-17.02,2.87-31.36-15.35-26.4-31.68,2.15-7.09,7.61-13.14,14.16-15.84,2.16-.56,4.32-1.12,6.48-1.68Z"/>
  <path class="cls-1" d="m627.63,262.56c28.68-.61,29.85,35.32,6,39.84-14.02,2.66-26.43-11.47-22.56-25.2,2.56-9.06,8.29-11.11,16.56-14.64Z"/>
  <path class="cls-1" d="m520.59,276.96c20.19-.37,35.21,18.68,24.24,37.2-5.22,8.81-18.92,15.8-32.16,9.84-5.62-2.53-7.58-7.18-11.52-11.28h-49.44c-35.6,35.52-71.2,71.04-106.8,106.56h-54.24l.24.48c.32.08.64.16.96.24v.24c-8.26-2.03-20.84-.96-30.72-.96-2.58,0-8.78-.87-10.32.48-4.63,4.7-7.53,9.12-15.12,11.04-15.49,3.92-32.27-10.1-29.76-25.2,1.82-10.96,7.13-18.15,16.56-21.36,12.09-4.12,25.81,3.05,28.56,11.52h84.48c35.52-35.44,71.04-70.88,106.56-106.32h42.24c5.12,0,13.92,1.35,18-.48,2.85-7.87,10.5-8.75,18.24-12Z"/>
  <path class="cls-1" d="m612.99,336.72c33.88-.63,35.54,43.97,5.76,49.2-19.16,3.36-33.21-17.31-26.16-34.32,2.4-5.8,7.63-10.81,13.44-13.2,2.32-.56,4.64-1.12,6.96-1.68Z"/>
  <path class="cls-1" d="m534.03,348.48c18.88.08,19.86,25.33,2.88,28.56-11.11,2.11-19.52-9.61-15.36-19.68,2.41-5.83,6.38-6.54,12.48-8.88Z"/>
  <path class="cls-1" d="m452.19,378.72c19.05-.11,19.96,25.45,2.88,28.56-10.57,1.93-19.49-9.15-15.36-19.44,2.38-5.94,6.34-6.76,12.48-9.12Z"/>
  <path class="cls-1" d="m555.39,404.16c33.46-.61,35.23,44.02,5.76,49.2-18.9,3.32-33.35-16.56-26.64-33.6,2.56-6.51,7.86-11.62,14.4-14.16,2.16-.48,4.32-.96,6.48-1.44Z"/>
  <path class="cls-1" d="m473.55,433.44c20.59-.57,22.25,23.93,6.24,28.08-11.41,2.96-20.75-8.1-17.04-18.72,1.92-5.49,5.79-6.87,10.8-9.36Z"/>
  <path class="cls-1" d="m390.27,474.24c34.69-.63,36.09,44.12,5.76,49.2-17.21,2.88-31.71-15.19-26.64-31.68,2.12-6.91,7.36-12.88,13.68-15.6,2.4-.64,4.8-1.28,7.2-1.92Z"/>
  <path class="cls-1" d="m528.27,482.16c17.78-.29,32.32,16.33,24.48,34.56-3.69,8.58-10.8,13.26-21.6,14.88-16.61,2.49-30.74-17.34-24.24-33.84,2.62-6.65,8.24-12.01,15.12-14.4,2.08-.4,4.16-.8,6.24-1.2Z"/>
  <path class="cls-1" d="m466.59,517.2c32.47,1.5,33.21,44.46,2.64,49.44-16.77,2.73-31.77-16.49-25.44-33.12,2.75-7.22,8.67-13.06,16.32-15.36,2.16-.32,4.32-.64,6.48-.96Z"/>
</svg>